<svg width="16" height="16" viewBox="0 0 16 16" fill="none" xmlns="http://www.w3.org/2000/svg">
<path d="M9.33333 14C9.15652 14 8.98695 13.9298 8.86193 13.8047C8.73691 13.6797 8.66667 13.5101 8.66667 13.3333V8C8.66667 7.82319 8.73691 7.65362 8.86193 7.5286C8.98695 7.40357 9.15652 7.33333 9.33333 7.33333H13.3333C13.5101 7.33333 13.6797 7.40357 13.8047 7.5286C13.9298 7.65362 14 7.82319 14 8V13.3333C14 13.5101 13.9298 13.6797 13.8047 13.8047C13.6797 13.9298 13.5101 14 13.3333 14H9.33333ZM2.66667 8.66667C2.48986 8.66667 2.32029 8.59643 2.19526 8.4714C2.07024 8.34638 2 8.17681 2 8V2.66667C2 2.48986 2.07024 2.32029 2.19526 2.19526C2.32029 2.07024 2.48986 2 2.66667 2H6.66667C6.84348 2 7.01305 2.07024 7.13807 2.19526C7.2631 2.32029 7.33333 2.48986 7.33333 2.66667V8C7.33333 8.17681 7.2631 8.34638 7.13807 8.4714C7.01305 8.59643 6.84348 8.66667 6.66667 8.66667H2.66667ZM6 7.33333V3.33333H3.33333V7.33333H6ZM2.66667 14C2.48986 14 2.32029 13.9298 2.19526 13.8047C2.07024 13.6797 2 13.5101 2 13.3333V10.6667C2 10.4899 2.07024 10.3203 2.19526 10.1953C2.32029 10.0702 2.48986 10 2.66667 10H6.66667C6.84348 10 7.01305 10.0702 7.13807 10.1953C7.2631 10.3203 7.33333 10.4899 7.33333 10.6667V13.3333C7.33333 13.5101 7.2631 13.6797 7.13807 13.8047C7.01305 13.9298 6.84348 14 6.66667 14H2.66667ZM3.33333 12.6667H6V11.3333H3.33333V12.6667ZM10 12.6667H12.6667V8.66667H10V12.6667ZM8.66667 2.66667C8.66667 2.48986 8.73691 2.32029 8.86193 2.19526C8.98695 2.07024 9.15652 2 9.33333 2H13.3333C13.5101 2 13.6797 2.07024 13.8047 2.19526C13.9298 2.32029 14 2.48986 14 2.66667V5.33333C14 5.51014 13.9298 5.67971 13.8047 5.80474C13.6797 5.92976 13.5101 6 13.3333 6H9.33333C9.15652 6 8.98695 5.92976 8.86193 5.80474C8.73691 5.67971 8.66667 5.51014 8.66667 5.33333V2.66667ZM10 3.33333V4.66667H12.6667V3.33333H10Z" fill="#667085"/>
</svg>
