<svg width="24" height="24" viewBox="0 0 24 24" fill="none" xmlns="http://www.w3.org/2000/svg">
<mask id="mask0_1019_849" style="mask-type:luminance" maskUnits="userSpaceOnUse" x="0" y="0" width="24" height="24">
<rect width="24" height="24" fill="white"/>
</mask>
<g mask="url(#mask0_1019_849)">
<path d="M10.9672 7.55528C11.2461 7.51315 11.476 7.28824 11.476 7.00622V3.68707C11.476 3.40505 11.2467 3.17472 10.9652 3.19245C6.64944 3.46439 3.42928 7.16159 3.19214 11.4743C3.17666 11.7559 3.40674 11.9849 3.68876 11.9849H7.00791C7.28993 11.9849 7.51577 11.7555 7.54319 11.4749C7.75281 9.32943 9.2704 7.81159 10.9672 7.55528Z" fill="white"/>
<path d="M17.4231 7.31438C17.5228 7.21467 17.6845 7.21467 17.7842 7.31438L22.0189 11.549C22.1797 11.7099 22.0658 11.9849 21.8383 11.9849H19.7739C19.7739 16.5127 16.472 20.4948 11.9867 20.7774C11.7053 20.7951 11.476 20.5648 11.476 20.2828V16.9636C11.476 16.6816 11.7059 16.4567 11.9848 16.4146C13.8132 16.1384 15.4334 14.3975 15.4334 11.9849H13.369C13.1415 11.9849 13.0276 11.7099 13.1884 11.549L17.4231 7.31438Z" fill="white"/>
<path d="M11.476 16.453C9.29036 16.453 7.51855 18.4534 7.51855 20.9211C7.51855 18.4534 5.74675 16.453 3.56111 16.453C5.74675 16.453 7.51855 14.4526 7.51855 11.9849C7.51855 14.4526 9.29036 16.453 11.476 16.453Z" fill="white"/>
<path d="M11.476 16.453C9.29036 16.453 7.51855 18.4534 7.51855 20.9211C7.51855 18.4534 5.74675 16.453 3.56111 16.453C5.74675 16.453 7.51855 14.4526 7.51855 11.9849C7.51855 14.4526 9.29036 16.453 11.476 16.453Z" fill="url(#paint0_linear_1019_849)"/>
</g>
<defs>
<linearGradient id="paint0_linear_1019_849" x1="17.2783" y1="11.5276" x2="4.31582" y2="22.2622" gradientUnits="userSpaceOnUse">
<stop stop-color="#FFEDAE"/>
<stop offset="0.5" stop-color="#FFD28A"/>
<stop offset="1" stop-color="#FFD336"/>
</linearGradient>
</defs>
</svg>
