<svg width="16" height="16" viewBox="0 0 16 16" fill="none" xmlns="http://www.w3.org/2000/svg">
<path d="M12.6667 12.6667V6.53267L8 2.85133L3.33333 6.53267V12.6667H12.6667ZM14 13.3333C14 13.5101 13.9298 13.6797 13.8047 13.8047C13.6797 13.9298 13.5101 14 13.3333 14H2.66667C2.48986 14 2.32029 13.9298 2.19526 13.8047C2.07024 13.6797 2 13.5101 2 13.3333V6.20933C1.99996 6.10863 2.02273 6.00923 2.06661 5.91859C2.11048 5.82796 2.17432 5.74843 2.25333 5.686L7.58667 1.47867C7.70436 1.38566 7.84999 1.33507 8 1.33507C8.15001 1.33507 8.29563 1.38566 8.41333 1.47867L13.7467 5.68533C13.8258 5.74784 13.8897 5.82747 13.9335 5.91823C13.9774 6.00899 14.0001 6.10852 14 6.20933V13.3333ZM4.66667 8H6C6 8.53043 6.21071 9.03914 6.58579 9.41421C6.96086 9.78929 7.46957 10 8 10C8.53043 10 9.03914 9.78929 9.41421 9.41421C9.78929 9.03914 10 8.53043 10 8H11.3333C11.3333 8.88406 10.9821 9.7319 10.357 10.357C9.7319 10.9821 8.88405 11.3333 8 11.3333C7.11594 11.3333 6.2681 10.9821 5.64298 10.357C5.01786 9.7319 4.66667 8.88406 4.66667 8Z" fill="#158DEF"/>
</svg>
