<svg width="16" height="16" viewBox="0 0 16 16" fill="none" xmlns="http://www.w3.org/2000/svg">
<path d="M9 1.33334C9 1.62934 8.87133 1.89534 8.66667 2.07867V3.33334H12C12.5304 3.33334 13.0391 3.54405 13.4142 3.91912C13.7893 4.2942 14 4.8029 14 5.33334V12C14 12.5304 13.7893 13.0391 13.4142 13.4142C13.0391 13.7893 12.5304 14 12 14H4C3.46957 14 2.96086 13.7893 2.58579 13.4142C2.21071 13.0391 2 12.5304 2 12V5.33334C2 4.8029 2.21071 4.2942 2.58579 3.91912C2.96086 3.54405 3.46957 3.33334 4 3.33334H7.33333V2.07867C7.209 1.96746 7.11447 1.82692 7.05833 1.66985C7.00219 1.51277 6.98624 1.34414 7.01193 1.17933C7.03761 1.01451 7.10412 0.858734 7.20539 0.726188C7.30667 0.593642 7.43949 0.488535 7.59176 0.420438C7.74404 0.352341 7.91093 0.323417 8.07724 0.3363C8.24354 0.349184 8.40399 0.403465 8.54396 0.494201C8.68393 0.584938 8.79898 0.709247 8.87863 0.855808C8.95828 1.00237 9 1.16653 9 1.33334ZM4 4.66667C3.82319 4.66667 3.65362 4.73691 3.5286 4.86193C3.40357 4.98696 3.33333 5.15653 3.33333 5.33334V12C3.33333 12.1768 3.40357 12.3464 3.5286 12.4714C3.65362 12.5964 3.82319 12.6667 4 12.6667H12C12.1768 12.6667 12.3464 12.5964 12.4714 12.4714C12.5964 12.3464 12.6667 12.1768 12.6667 12V5.33334C12.6667 5.15653 12.5964 4.98696 12.4714 4.86193C12.3464 4.73691 12.1768 4.66667 12 4.66667H4ZM1.33333 6.66667H0V10.6667H1.33333V6.66667ZM14.6667 6.66667H16V10.6667H14.6667V6.66667ZM6 9.66667C6.26522 9.66667 6.51957 9.56131 6.70711 9.37378C6.89464 9.18624 7 8.93189 7 8.66667C7 8.40145 6.89464 8.1471 6.70711 7.95956C6.51957 7.77203 6.26522 7.66667 6 7.66667C5.73478 7.66667 5.48043 7.77203 5.29289 7.95956C5.10536 8.1471 5 8.40145 5 8.66667C5 8.93189 5.10536 9.18624 5.29289 9.37378C5.48043 9.56131 5.73478 9.66667 6 9.66667ZM10 9.66667C10.2652 9.66667 10.5196 9.56131 10.7071 9.37378C10.8946 9.18624 11 8.93189 11 8.66667C11 8.40145 10.8946 8.1471 10.7071 7.95956C10.5196 7.77203 10.2652 7.66667 10 7.66667C9.73478 7.66667 9.48043 7.77203 9.29289 7.95956C9.10536 8.1471 9 8.40145 9 8.66667C9 8.93189 9.10536 9.18624 9.29289 9.37378C9.48043 9.56131 9.73478 9.66667 10 9.66667Z" fill="#667085"/>
</svg>
