<svg width="16" height="16" viewBox="0 0 16 16" fill="none" xmlns="http://www.w3.org/2000/svg">
<path d="M1.33325 7.99997C1.33325 7.42331 1.40659 6.86398 1.54392 6.33064C1.91223 6.35 2.27872 6.26714 2.60288 6.09122C2.92704 5.9153 3.19624 5.65317 3.38072 5.3338C3.56521 5.01444 3.65779 4.65028 3.64824 4.28159C3.63868 3.91289 3.52736 3.55402 3.32659 3.24464C4.13265 2.45168 5.12716 1.87677 6.21659 1.57397C6.38391 1.90296 6.63901 2.17922 6.95364 2.37218C7.26827 2.56514 7.63016 2.66728 7.99925 2.66728C8.36834 2.66728 8.73023 2.56514 9.04486 2.37218C9.35949 2.17922 9.61459 1.90296 9.78192 1.57397C10.8713 1.87677 11.8659 2.45168 12.6719 3.24464C12.4709 3.55408 12.3594 3.91309 12.3498 4.28195C12.3402 4.65082 12.4328 5.01515 12.6174 5.33465C12.802 5.65415 13.0713 5.91635 13.3957 6.09225C13.7201 6.26815 14.0868 6.35089 14.4553 6.33131C14.5926 6.86464 14.6659 7.42331 14.6659 7.99997C14.6659 8.57597 14.5926 9.13531 14.4553 9.66864C14.0868 9.64906 13.7201 9.7318 13.3957 9.9077C13.0713 10.0836 12.802 10.3458 12.6174 10.6653C12.4328 10.9848 12.3402 11.3491 12.3498 11.718C12.3594 12.0869 12.4709 12.4459 12.6719 12.7553C11.8658 13.548 10.8713 14.1227 9.78192 14.4253C9.61459 14.0963 9.35949 13.8201 9.04486 13.6271C8.73023 13.4341 8.36834 13.332 7.99925 13.332C7.63016 13.332 7.26827 13.4341 6.95364 13.6271C6.63901 13.8201 6.38391 14.0963 6.21659 14.4253C5.12723 14.1227 4.13273 13.548 3.32659 12.7553C3.52759 12.4459 3.63907 12.0869 3.6487 11.718C3.65832 11.3491 3.56572 10.9848 3.38113 10.6653C3.19654 10.3458 2.92715 10.0836 2.60279 9.9077C2.27842 9.7318 1.91172 9.64906 1.54325 9.66864C1.40659 9.13531 1.33325 8.57597 1.33325 7.99997ZM4.53592 9.99998C4.95592 10.7273 5.07592 11.564 4.91192 12.3493C5.18436 12.5431 5.47259 12.7098 5.77659 12.8493C6.38793 12.3022 7.17954 11.9998 7.99992 12C8.83992 12 9.62525 12.314 10.2233 12.8493C10.5273 12.7098 10.8155 12.5431 11.0879 12.3493C10.92 11.5466 11.0539 10.7102 11.4639 9.99998C11.874 9.28985 12.5315 8.7558 13.3106 8.49997C13.3419 8.16738 13.3419 7.83257 13.3106 7.49997C12.5315 7.24415 11.874 6.7101 11.4639 5.99997C11.0539 5.28978 10.92 4.45334 11.0879 3.65064C10.816 3.45729 10.5265 3.28989 10.2233 3.15064C9.61191 3.6977 8.8203 4.00011 7.99992 3.99997C7.17954 4.00011 6.38793 3.6977 5.77659 3.15064C5.47336 3.28989 5.18387 3.45729 4.91192 3.65064C5.07985 4.45334 4.94598 5.28978 4.53592 5.99997C4.12583 6.7101 3.46836 7.24415 2.68925 7.49997C2.65793 7.83257 2.65793 8.16738 2.68925 8.49997C3.46861 8.75566 4.12566 9.28972 4.53592 9.99998ZM7.99992 9.99998C7.46949 9.99998 6.96078 9.78926 6.5857 9.41419C6.21063 9.03912 5.99992 8.53041 5.99992 7.99997C5.99992 7.46954 6.21063 6.96083 6.5857 6.58576C6.96078 6.21069 7.46949 5.99997 7.99992 5.99997C8.53035 5.99997 9.03906 6.21069 9.41413 6.58576C9.78921 6.96083 9.99992 7.46954 9.99992 7.99997C9.99992 8.53041 9.78921 9.03912 9.41413 9.41419C9.03906 9.78926 8.53035 9.99998 7.99992 9.99998ZM7.99992 8.66664C8.17673 8.66664 8.3463 8.5964 8.47132 8.47138C8.59635 8.34635 8.66659 8.17679 8.66659 7.99997C8.66659 7.82316 8.59635 7.65359 8.47132 7.52857C8.3463 7.40355 8.17673 7.33331 7.99992 7.33331C7.82311 7.33331 7.65354 7.40355 7.52851 7.52857C7.40349 7.65359 7.33325 7.82316 7.33325 7.99997C7.33325 8.17679 7.40349 8.34635 7.52851 8.47138C7.65354 8.5964 7.82311 8.66664 7.99992 8.66664Z" fill="#667085"/>
</svg>
